<svg width="24" height="24" viewBox="0 0 24 24" fill="none" xmlns="http://www.w3.org/2000/svg">
<path d="M13.3704 1.58957C12.5219 1.10182 11.4781 1.10182 10.6295 1.58957C10.25 1.80773 9.96249 2.1493 9.69782 2.53282C9.43473 2.91403 9.13955 3.42084 8.77541 4.04604L8.13787 5.14064C7.90424 5.54175 7.83834 5.64743 7.76327 5.73048C7.64689 5.85924 7.50496 5.96236 7.34654 6.03326C7.24435 6.07899 7.12349 6.109 6.66981 6.20724L5.43179 6.47533C4.72467 6.62845 4.15143 6.75258 3.70757 6.88499C3.26104 7.01819 2.84734 7.18606 2.52258 7.4796C1.79649 8.13589 1.47392 9.12863 1.67559 10.0864C1.76579 10.5147 2.00181 10.8937 2.28476 11.2639C2.56602 11.632 2.95681 12.0693 3.43888 12.6088L4.2829 13.5534C4.59218 13.8996 4.67232 13.9949 4.72811 14.0919C4.81461 14.2424 4.86882 14.4093 4.88729 14.5818C4.89921 14.6932 4.8904 14.8174 4.84364 15.2792L4.71604 16.5395C4.64315 17.2593 4.58406 17.8429 4.57283 18.3059C4.56153 18.7717 4.59335 19.2171 4.77216 19.6166C5.17196 20.51 6.01643 21.1236 6.98961 21.2277C7.42489 21.2743 7.85824 21.1669 8.2978 21.0122C8.73472 20.8585 9.27143 20.622 9.93351 20.3302L11.0927 19.8194C11.5174 19.6322 11.6329 19.5854 11.7424 19.5624C11.9123 19.5266 12.0877 19.5266 12.2575 19.5624C12.3671 19.5854 12.4825 19.6322 12.9073 19.8194L14.0664 20.3302C14.7285 20.622 15.2652 20.8585 15.7021 21.0122C16.1417 21.1669 16.5751 21.2743 17.0103 21.2277C17.9835 21.1236 18.828 20.51 19.2278 19.6166C19.4066 19.2171 19.4384 18.7717 19.4271 18.3059C19.4159 17.8429 19.3568 17.2593 19.2839 16.5395L19.1563 15.2792C19.1095 14.8174 19.1007 14.6932 19.1127 14.5818C19.1311 14.4093 19.1853 14.2424 19.2718 14.0919C19.3276 13.9949 19.4078 13.8996 19.7171 13.5534L20.5611 12.6088C21.0432 12.0693 21.4339 11.6319 21.7152 11.2639C21.9981 10.8937 22.2342 10.5147 22.3244 10.0864C22.526 9.12863 22.2035 8.13589 21.4774 7.4796C21.1526 7.18606 20.7389 7.01819 20.2924 6.88499C19.8485 6.75258 19.2753 6.62846 18.5682 6.47534L17.3301 6.20725C16.8765 6.109 16.7556 6.07899 16.6534 6.03326C16.495 5.96236 16.3531 5.85924 16.2367 5.73048C16.1616 5.64743 16.0957 5.54175 15.8621 5.14064L15.2246 4.04607C14.8604 3.42088 14.5652 2.91403 14.3021 2.53282C14.0375 2.1493 13.75 1.80773 13.3704 1.58957Z" fill="#FFC300"/>
</svg>
