<svg width="70" height="70" viewBox="0 0 70 70" fill="none" xmlns="http://www.w3.org/2000/svg">
<path d="M58.1588 27.3485C56.543 23.5537 54.0203 20.2136 50.8123 17.6213C47.6043 15.029 43.8089 13.2639 39.7595 12.4809L43.4175 6.62808L39.7075 4.30933L34.8807 12.0323C29.9639 12.0551 25.1616 13.5179 21.0671 16.2399C16.9725 18.9618 13.7651 22.8238 11.8412 27.3485C9.26415 27.3975 6.80917 28.4556 5.00398 30.2954C3.19878 32.1353 2.1875 34.6099 2.1875 37.1875C2.1875 39.765 3.19878 42.2396 5.00398 44.0795C6.80917 45.9193 9.26415 46.9774 11.8412 47.0264C13.7733 51.5697 16.9991 55.4444 21.117 58.168C25.2349 60.8915 30.0629 62.3437 35 62.3437C39.9371 62.3437 44.7651 60.8915 48.883 58.168C53.0009 55.4444 56.2267 51.5697 58.1588 47.0264C60.7359 46.9774 63.1909 45.9193 64.996 44.0795C66.8012 42.2396 67.8125 39.765 67.8125 37.1875C67.8125 34.6099 66.8012 32.1353 64.996 30.2954C63.1909 28.4556 60.7359 27.3975 58.1588 27.3485ZM61.871 41.0169C60.8704 42.0403 59.5067 42.6279 58.0757 42.6522L55.2422 42.7061L54.133 45.3139C52.537 49.0677 49.8721 52.2691 46.47 54.5195C43.068 56.7699 39.0791 57.9698 35.0001 57.9698C30.9211 57.9698 26.9322 56.7699 23.5301 54.5195C20.128 52.2691 17.4631 49.0677 15.8672 45.3139L14.7578 42.7061L11.9243 42.6522C10.4927 42.6254 9.12875 42.0379 8.12577 41.016C7.12278 39.9941 6.56088 38.6193 6.56088 37.1875C6.56088 35.7556 7.12278 34.3808 8.12577 33.3589C9.12875 32.337 10.4927 31.7495 11.9243 31.7227L14.7578 31.6688L15.8672 29.061C17.4632 25.3072 20.1281 22.1059 23.5302 19.8555C26.9322 17.6052 30.9211 16.4053 35.0001 16.4053C39.0791 16.4053 43.0679 17.6052 46.47 19.8555C49.872 22.1059 52.537 25.3072 54.133 29.061L55.2422 31.6688L58.0757 31.7227C59.1435 31.7428 60.182 32.0754 61.0628 32.6794C61.9437 33.2833 62.6283 34.1321 63.032 35.1208C63.4357 36.1095 63.541 37.1949 63.3346 38.2428C63.1283 39.2906 62.6194 40.2551 61.871 41.0169Z" fill="#FEF4F4"/>
<path d="M22.9688 31.7188H28.4375V37.1875H22.9688V31.7188Z" fill="#FEF4F4"/>
<path d="M41.5625 31.7188H47.0312V37.1875H41.5625V31.7188Z" fill="#FEF4F4"/>
<path d="M35 52.5C36.4363 52.5 37.8586 52.2171 39.1856 51.6674C40.5126 51.1178 41.7183 50.3121 42.734 49.2965C43.7496 48.2808 44.5553 47.0751 45.1049 45.7481C45.6546 44.4211 45.9375 42.9988 45.9375 41.5625H24.0625C24.0625 42.9988 24.3454 44.4211 24.8951 45.7481C25.4447 47.0751 26.2504 48.2808 27.266 49.2965C29.3172 51.3477 32.0992 52.5 35 52.5Z" fill="#FEF4F4"/>
</svg>
