<svg width="70" height="70" viewBox="0 0 70 70" fill="none" xmlns="http://www.w3.org/2000/svg">
<path d="M20.4575 14C18.774 14 17.5 15.309 17.5 16.814V21H14V16.814C14 13.279 16.94 10.5 20.4575 10.5H56.5425C60.06 10.5 63 13.279 63 16.814V42.686C63 46.221 60.06 49 56.5425 49H35V45.5H56.5425C58.226 45.5 59.5 44.191 59.5 42.686V16.814C59.5 15.309 58.226 14 56.5425 14H20.4575ZM35 42H43.75C44.2141 42 44.6592 41.8156 44.9874 41.4874C45.3156 41.1592 45.5 40.7141 45.5 40.25C45.5 39.7859 45.3156 39.3407 44.9874 39.0126C44.6592 38.6844 44.2141 38.5 43.75 38.5H35V42ZM17.5 52.5C17.0359 52.5 16.5908 52.6844 16.2626 53.0126C15.9344 53.3407 15.75 53.7859 15.75 54.25C15.75 54.7141 15.9344 55.1592 16.2626 55.4874C16.5908 55.8156 17.0359 56 17.5 56H21C21.4641 56 21.9092 55.8156 22.2374 55.4874C22.5656 55.1592 22.75 54.7141 22.75 54.25C22.75 53.7859 22.5656 53.3407 22.2374 53.0126C21.9092 52.6844 21.4641 52.5 21 52.5H17.5ZM7 29.75C7 28.3576 7.55312 27.0223 8.53769 26.0377C9.52226 25.0531 10.8576 24.5 12.25 24.5H26.25C27.6424 24.5 28.9777 25.0531 29.9623 26.0377C30.9469 27.0223 31.5 28.3576 31.5 29.75V57.75C31.5 59.1424 30.9469 60.4777 29.9623 61.4623C28.9777 62.4469 27.6424 63 26.25 63H12.25C10.8576 63 9.52226 62.4469 8.53769 61.4623C7.55312 60.4777 7 59.1424 7 57.75V29.75ZM12.25 28C11.7859 28 11.3408 28.1844 11.0126 28.5126C10.6844 28.8407 10.5 29.2859 10.5 29.75V57.75C10.5 58.2141 10.6844 58.6592 11.0126 58.9874C11.3408 59.3156 11.7859 59.5 12.25 59.5H26.25C26.7141 59.5 27.1592 59.3156 27.4874 58.9874C27.8156 58.6592 28 58.2141 28 57.75V29.75C28 29.2859 27.8156 28.8407 27.4874 28.5126C27.1592 28.1844 26.7141 28 26.25 28H12.25Z" fill="#FEF4F4"/>
</svg>
