<svg width="90" height="24" viewBox="0 0 90 24" fill="none" xmlns="http://www.w3.org/2000/svg">
<g clip-path="url(#clip0_2_1546)">
<path d="M59.248 0V17.4266C61.3976 17.5266 63.5414 17.6475 65.6793 17.7901V21.4849C62.2885 21.2588 58.8944 21.0872 55.4981 20.9703V0H59.248ZM89.0468 0.00208696L84.1638 11.3228L89.0456 23.9207L89.0402 23.923C87.6168 23.7204 86.1921 23.5278 84.7661 23.345L82.0247 16.2744L79.2572 22.6887C77.9455 22.5438 76.6323 22.407 75.316 22.2783L80.0762 11.247L75.7167 0.00226087H79.7732L82.2141 6.29513L84.9282 0.00208696H89.0468ZM42.6282 20.7871V0.00191304H53.096V3.72991H46.3781V8.56122H51.461V12.256H46.3781V20.7864L42.6282 20.7871ZM28.6259 3.73009V0.00173913H40.2242V3.72991H36.2998V20.8882C35.0482 20.9212 33.7979 20.9598 32.5502 21.007V3.73009H28.6259ZM15.8064 22.081V0.00243478H26.2221V3.73026H19.5558V8.78C21.0873 8.76035 23.2649 8.73826 24.6196 8.74139V12.4365C22.9238 12.4157 21.0095 12.4598 19.5558 12.4743V18.068C21.7763 17.893 23.9985 17.7411 26.2221 17.6123V21.3075C22.7462 21.508 19.2738 21.766 15.8064 22.0814V22.081ZM8.45042 13.5398L8.45024 0.00173913H12.2002V22.4296C10.8294 22.5704 9.46103 22.7205 8.09529 22.879L3.75285 10.4042V23.4132C2.5005 23.5763 1.25059 23.7463 0.00311279 23.9238V0.00208696H3.56676L8.45024 13.5398H8.45042ZM68.7729 21.7077V0.00208696H72.5229V22.0174C71.2744 21.9061 70.0248 21.8035 68.7729 21.7078V21.7077Z" fill="#DB202C"/>
</g>
<defs>
<clipPath id="clip0_2_1546">
<rect width="89.05" height="24" fill="white"/>
</clipPath>
</defs>
</svg>
