<svg width="70" height="70" viewBox="0 0 70 70" fill="none" xmlns="http://www.w3.org/2000/svg">
<path d="M58.3333 5.83337H11.6667C10.1196 5.83337 8.63584 6.44796 7.54188 7.54192C6.44792 8.63588 5.83334 10.1196 5.83334 11.6667V46.6667C5.83334 48.2138 6.44792 49.6975 7.54188 50.7915C8.63584 51.8855 10.1196 52.5 11.6667 52.5H29.1667V58.3334H20.4167V64.1667H49.5833V58.3334H40.8333V52.5H58.3333C59.8804 52.5 61.3642 51.8855 62.4581 50.7915C63.5521 49.6975 64.1667 48.2138 64.1667 46.6667V11.6667C64.1667 10.1196 63.5521 8.63588 62.4581 7.54192C61.3642 6.44796 59.8804 5.83337 58.3333 5.83337ZM58.3333 46.6667H11.6667V11.6667H58.3333V46.6667ZM48.8542 37.9167C48.8542 39.2704 48.3164 40.5687 47.3592 41.5259C46.402 42.4831 45.1037 43.0209 43.75 43.0209C42.3963 43.0209 41.098 42.4831 40.1408 41.5259C39.1836 40.5687 38.6458 39.2704 38.6458 37.9167L29.1667 33.1334C28.4285 33.7016 27.5459 34.0518 26.619 34.1442C25.692 34.2366 24.7577 34.0675 23.9219 33.6562C23.086 33.2448 22.3821 32.6076 21.8899 31.8167C21.3977 31.0258 21.1368 30.1129 21.1368 29.1813C21.1368 28.2497 21.3977 27.3368 21.8899 26.5459C22.3821 25.755 23.086 25.1178 23.9219 24.7064C24.7577 24.295 25.692 24.126 26.619 24.2184C27.5459 24.3108 28.4285 24.6609 29.1667 25.2292L38.6458 20.4167C38.6295 19.2464 39.0113 18.1053 39.7287 17.1805C40.4461 16.2557 41.4564 15.6021 42.594 15.3269C43.7317 15.0517 44.929 15.1713 45.9898 15.6659C47.0505 16.1606 47.9117 17.0011 48.432 18.0494C48.9524 19.0978 49.1011 20.2919 48.8537 21.4359C48.6063 22.5799 47.9775 23.6058 47.0704 24.3455C46.1634 25.0852 45.0319 25.4947 43.8615 25.5069C42.6912 25.5191 41.5514 25.1332 40.6292 24.4125L31.2375 29.1667L40.6292 33.8625C41.382 33.2664 42.2884 32.8961 43.2433 32.7946C44.1981 32.6931 45.1622 32.8646 46.0235 33.2891C46.8848 33.7137 47.6079 34.3738 48.109 35.193C48.6101 36.0121 48.8685 36.9566 48.8542 37.9167Z" fill="#FEF4F4"/>
</svg>
