<svg width="70" height="70" viewBox="0 0 70 70" fill="none" xmlns="http://www.w3.org/2000/svg">
<path d="M13.8541 11.6666C11.7269 11.6666 9.68676 12.5117 8.18256 14.0159C6.67836 15.5201 5.83331 17.5602 5.83331 19.6875V44.4791C5.83331 46.6064 6.67836 48.6465 8.18256 50.1507C9.68676 51.6549 11.7269 52.5 13.8541 52.5H56.1458C58.2731 52.5 60.3132 51.6549 61.8174 50.1507C63.3216 48.6465 64.1667 46.6064 64.1667 44.4791V19.6875C64.1667 17.5602 63.3216 15.5201 61.8174 14.0159C60.3132 12.5117 58.2731 11.6666 56.1458 11.6666H13.8541ZM10.2083 19.6875C10.2083 17.675 11.8416 16.0416 13.8541 16.0416H56.1458C58.1583 16.0416 59.7917 17.675 59.7917 19.6875V44.4791C59.7917 46.4916 58.1583 48.125 56.1458 48.125H13.8541C11.8416 48.125 10.2083 46.4916 10.2083 44.4791V19.6875Z" fill="#FEF4F4"/>
<path d="M16.7708 56.875C16.1907 56.875 15.6343 57.1055 15.224 57.5158C14.8138 57.9262 14.5833 58.4827 14.5833 59.063C14.5833 59.6432 14.8138 60.1997 15.224 60.6101C15.6343 61.0204 16.1907 61.2509 16.7708 61.2509H53.2291C53.8093 61.2509 54.3657 61.0204 54.7759 60.6101C55.1862 60.1997 55.4166 59.6432 55.4166 59.063C55.4166 58.4827 55.1862 57.9262 54.7759 57.5158C54.3657 57.1055 53.8093 56.875 53.2291 56.875H16.7708Z" fill="#FEF4F4"/>
</svg>
